<svg width="182" height="121" viewBox="0 0 182 121" fill="none" xmlns="http://www.w3.org/2000/svg">
<g id="estados-br">
<path id="BRSP" d="M0 63.1L0.6 62.5L1.1 61.9L2.3 59.7L2.4 59.6L2.6 59.5L2.9 59.4L3.1 59.3L3.3 59.1L3.6 58.4L4 57.8L4.1 57.7L4.3 57.9H4.6L5 57.7L6.5 57L6.6 56.9L6.8 56.3L7 56.1L8.9 55L9.5 54.4L9.9 54.2L11 53.8L11.6 53.2L12.2 52.9H12.6L13 52.7L13.5 52.2L13.7 52.1L14.2 51.8L14.3 51.7L14.7 51.2L16 50L16.1 49.8L16.3 49.2V49.1L16.9 47.8L17 47.5L17.1 46.8L17.2 46.5L17.4 46.2L18.5 45.1L18.9 45L19.3 44.6L19.4 44.4L19.6 44.2L19.7 43.9V43.5L19.8 43.2L20.4 42.2L20.7 42L21.4 41.7L21.9 41.3L22.3 41L22.6 40.6L22.7 40.1L22.5 39.7L22.2 39.6L21.3 38.1L21.4 37.5L21.5 37.4H21.6L21.8 37.2V36.9L21.9 36.7L22.1 36.6L22.2 36.5H22.9L23.5 36.7L23.9 36.5L24.2 36.3L24.8 35.3L24.9 34.9L26.1 33.6L26.5 32.6L26.4 31.7L26 29.9L26.1 29.3L26.3 29L26.7 28.8L27.2 28.4L27.5 28.2L27.7 28L28.1 27.4L28.6 26.1L28.9 25.8L29.3 25.5L30.7 23.9L30.9 23.5L31.1 21.2V19.7L31.6 18.9L31.8 17.9L31.9 17.5L32.3 17.2L33.3 17L34.3 15.9L34.8 15.2L35.6 14.2L35.9 13.6L37 12.5L38.2 11.9L40.9 11.1L41.3 10.8L41.9 10.3L42.5 9.6L43 8.7L43.7 6.9L44.6 5.8L45.8 4.8L46.2 4.6L49.7 3.3L50.2 3.1L50.6 2.9L52.1 1.4L52.5 0.6L53.2 0.2L53.9 0H54.6L55.2 0.2L55.7 0.7L56.4 1.6L56.9 1.9L63.4 2.8L66.1 3.2H72.9L73.9 3.4L75.7 4L76.1 4.3L77.5 4L78 3.9L78.4 4L78.8 4.2L79 4.4L78.9 4.8L78.2 5.1H78.1L78 5.2L77.9 5.5V5.7L77.7 6.3V6.8L77.9 7.8L78 8.2L78.5 9.2L79 9.9L79.3 10.7L79.5 11L80.2 11.3L80.9 11L81.5 10.4L81.9 9.8L82.5 8.3L83.1 7.8L83.8 7.9L84.3 8.6L84.5 9.6L84.4 11.6L84.5 13.3L84.7 13.5L85.6 13.9L85.9 14.1L86.5 13.6L86.6 13.4L86.5 13.1L86.4 12.5L86.3 12.2V11.1L86.2 10.7L86.1 10.5V10.3L86.4 9.9L86.8 8.7L87 8.2L87.5 7.9H88.5L89.3 7.8H89.6L90.8 8L91.2 8.1L91.5 8L92.2 7.5L92.6 7.3L94.2 7.5L94.6 7.3L95.1 7.2L96 7H97.7L98.1 7.2L98.8 7.6H99.1L99.6 7.1L99.1 5.6L99.5 5L100 5.4L100.2 5.8L100.4 6.4L100.6 6.9L101 7.2L101.8 7.5L102.4 7.9H102.8L103.1 7.7L103.2 7.6L103.3 7.4L103.4 7.3H103.5L103.8 7.2L103.9 7.1L104.1 6.7L104.2 6.3V5.3L104.5 5.4L104.7 5.5L104.9 5.7L105.1 6V6.5L105.2 6.7L105.3 7L105.5 7.1H105.9L106.1 7L106.4 6.8L106.6 6.3L106.7 5.8V5.4L106.5 5V4.8L106.7 4.7L106.8 4.5L107 4.3L107.2 4.2L109.8 4.1L110.1 4.2L110.5 4.6L111 5.3L111.4 5.5L111.8 5.4L112.1 5.1L112.5 4.5L113.5 4.3L113.9 4.2L114.4 4L114.7 3.8L114.9 4L115.3 4.3L115.4 4.4L115.5 4.6V4.8L115.4 4.9V5.3L115.3 5.4V5.5L115.8 6L116.1 6.2L116.3 6.3H116.6L118 7.3L118.2 7.6L119 8.2L119.2 8.7L119.4 9.1V9.8L119.3 10.1L119.2 10.3V10.4L118.8 10.8H118.7V10.9L118.6 11.1V11.5L118.5 12.8L118.4 13.3V13.6L118.3 13.8V14.1L118.4 14.2L118.9 14.8L119.1 15L121.1 15.9L121.2 16V16.1L121.4 16.3L121.5 16.5L122 18.3V18.8L121.9 19V19.2L121.6 19.5L121.4 19.6H121.2L121 19.8L120.9 20.3V20.5L120.8 20.8L120.6 21.2L120.4 21.4L120.1 21.6L119.9 22L119.8 23.6L119.6 24L119.7 24.2V24.3L120 24.6H120.3L120.6 24.9L120.8 25.3L121.3 25.8L121.2 25.9L121.1 26.1V26.5L121.5 27.9V28.7L121.6 28.8L121.7 29L122.6 30.2L122.8 30.3L122.9 30.4H123.1V30.6L123.6 32.1L123.7 32.3L123.8 32.8L123.9 33L124.3 33.6V33.8L124.4 34L124.3 34.1L124.2 34.6V34.9L124.4 35L124.7 35.1L126.3 34.9H126.5L126.6 34.8L126.8 34.7L126.9 34.6H127.2L127.3 34.5H127.4L127.6 34.3L127.7 34.1V34H127.8L127.9 33.9L128.5 34L128.7 33.9H128.8L128.9 34L129.4 34.1L129.9 34.4L130.3 34.7H130.4L130.5 34.8L130.6 34.7H130.7L130.9 34.4L131.1 34.2H131.4V34.6L131.5 34.8L131.6 34.9L131.9 35H132L132.1 35.2V35.3L132.2 35.5H132.7L132.8 35.4H133.1L133.3 35.5L133.6 35.6H133.7L134.1 36V36.1L134.2 37.1L134.3 37.2V37.4H134.4V37.5L134.1 37.8H134V37.9L133.9 38.1L133.8 38.4V39L133.9 39.1V39.2L133.6 39.5H133.5V39.6L133.4 39.7L133 40.8L132.8 41H132.7L132.2 40.9H132.1L132 41.1L131.6 42.8V43.1L131.5 43.2L131.1 43.4L131 43.6L130.8 43.8V44.1L130.9 44.4L131.1 44.6H131.2V44.7L131.3 44.8V45L131.2 45.2L131 45.4V45.7L131.5 46.9L131.9 47.5V47.6L131.8 47.7L131.7 47.9L131.5 48H131.1L131 48.1L130.9 48.3L130.8 48.4V48.5L130.9 48.7L131 48.8V48.9L130.8 49.1H130.4L130.2 49.3L130.3 49.4L130.4 49.6L130.6 49.8H131.4L131.5 49.9H131.6L131.7 50L132.2 50.7V50.8L132.1 51L131.6 51.5L131.3 51.7L130.9 52.3L130.2 54L130.1 54.5L130.2 54.7L130.3 54.8L131 55.6V55.8L131.1 55.9L131 56.3V56.5L131.2 56.6L131.4 56.8L132.4 57.2L133.1 57.3H133.2L133.3 57.4V58.1L133.5 58.3H133.9L134.3 58.5L135.2 59.1L135.4 59.2L135.8 59.3H136.5V59.4L136.4 59.6V59.7L136.3 59.8L136.1 59.9H136L135.9 60.1V60.5L136 60.7L136.1 60.8L136.4 61.2V61.3L136.3 61.5L136.1 61.7L135.1 62L134.9 62.2H134.8V62.3L134.7 62.4L134.8 62.6V62.7L135.4 63.1L135.7 63.4L136.9 64.1L137.1 64.3L137.2 64.5L137 64.8V66L137.1 66.2L137.2 66.5L137.4 66.7H137.5L137.7 66.8H138.1L138.5 67H138.9L139.2 66.7H139.3L139.4 66.8L139.6 66.9H139.7L140.1 66.7L140.3 66.5H140.4L140.5 66.4L141.2 66.3H141.3L141.5 66.5V66.7L141.3 66.9V67.1L141.4 67.2L141.8 67.3L143.4 67L143.9 66.9L144.5 66.6L144.7 66.4V66.3L144.9 66.1V66H145.3L145.5 66.1H145.6L145.9 65.8V65.7L146 65.6L146.2 65.7V65.8L146.3 66L146.4 66.1V66.2L146.8 66.4L147 66.6H147.2L147.3 66.4L147.4 66.3L147.6 66L147.8 65.9L147.9 65.8H148.1L148.2 65.9V66L148.3 66.1V66.2L148.4 66.3H148.7L148.9 66.1V66L149 65.8V65.7L148.9 65.6V65.4L148.8 65.2L148.9 65.1V65H149.2L149.4 65.1L149.5 65.2L149.6 65.1L149.7 64.9L149.8 64.8V63.8L149.6 63.6H148.4L148.3 63.5H148.2V63.1H148.3L150 62L150.1 61.9L150.2 61.7L150.1 61.6V61.4L149.7 61V60.9L149.6 60.8L149.8 60.6H150.2L151 60.5H151.3L151.4 60.6L151.3 60.7L151.1 61.1L150.7 61.5V61.8L150.8 61.9H150.9L151 62H151.4L151.6 61.9L152.1 61.6L152.5 61.3H152.8L152.9 61.4V61.6L153 61.7V61.8L153.1 61.9L153.8 62H154L154.2 61.9L154.6 61.6L154.8 61.5L154.9 61.4L155.2 60.9L155.3 60.8H155.6L155.7 60.9H155.8L156 61.1V61.2L156.1 61.3V61.8L156.3 62H156.4L156.6 61.9L157.5 61.4L159 61L159.1 60.9L159.3 60.8L159.4 60.6V60.1H159.9L160.3 59.7L160.7 59.4L160.8 59.3L161.9 58.7L162.1 58.5L163.3 58L163.5 57.9L163.9 58H164.1L164.3 57.9L164.6 57.7L164.8 57.6H166L166.5 57.4L167.8 56.7H168.4L169 57L169.3 57.2L169.5 57.4L170.2 58.8L170.4 59L170.7 59.2L171 59.6L171.1 59.7V59.8L171.2 59.9H171.5V60L171.7 60.7V60.8L171.9 61L172.4 61.2H173L173.1 61.1H173.4L173.7 61.3L173.9 61.4H174.3L174.5 61.3H174.6V61.2H174.8L175.7 61.1H175.8L176 60.9H176.6L176.8 60.8H176.9L177 60.6L177.1 60.5L177.5 60.9H177.8L178 60.8L178.3 60.7H178.8L179.5 60.8H179.9L180 60.7H180.1L180.2 60.6V60.7L180.5 61.1L180.8 61.6L181.2 62.3L181.3 62.5V62.9L181.1 63.1L180.9 63.2H180.8L180.5 63.3L180.1 63.5L179.6 64.1L179.5 64.3L179.6 64.5V64.9L179.3 65.5L179.1 65.7L178.4 65.9L177.4 66.5L177.1 66.6H177L176.8 66.5L176.7 66.4H176.6L176 66.7H175.8L175.6 66.8L175.5 66.7H175.4V66.6L175.3 66.5V66.4L175.2 66.3H175.1L174 67L173.7 67.1H173.6L173.3 66.9H172.8L172.3 67.2L171.6 67.7L171 68L170.3 68.1H170.2L170.1 68.2H170L169.7 68.5L169.5 69L169.4 69.1H169.2L169.1 69.2H168.7L168.6 69.3V70.1L168.4 71.3V72.6L168.2 73L167.9 73.3H167.8L167.6 73.5L167.2 74.1V74.6L167.3 74.8L167.8 75.6L168.1 76.1L168.2 76.2H168.4L168.5 76.1V76H168.6L168.8 76.1L169.1 76.7L169.3 76.9L169.9 77.3L169.8 77.6L169.2 77.8L168.8 77.9L168.5 77.8L168.2 77.9L167.9 78.1H167.6L167.3 77.5H166.8L166.5 77.6L166.6 77.1L166.1 77.3L165.4 77.7L165.1 78L164.9 78.3L164.8 78.4H164.7L164.4 78.5H164.3L163.9 78.7H163.7L163.6 78.5L163.4 79L164 79.4L164.3 79.7H163.8L163.4 80L163 80.9L162.8 80.5L162.6 80.4L162.5 80.5L162.6 80.9H162.4L162.2 80.8L161.9 80.6L161.7 80.4L161.5 80.3L161.4 80.6V80.9L161.5 81.2L161.1 81.3L160.8 81.2L160.4 81.1L160.1 81.5L160.4 81.9V82.2L160.2 82.3H160L159.4 82.6L159.1 82.5L158.8 82.2L158.6 82.1L158.4 82.2L157.9 82.7L157.4 82.9L156.6 83.3L156.1 83.2V83.4L155.8 83.7L155.7 83.9V84.2L155.8 84.7L155.9 84.9V85.2L156.1 85.3H156.3L156.4 85.4V85.7L156.3 86.2V86.4L156.5 86.8V87.2L156.3 87.6L155.9 87.9H155.6L155.4 87.8L155.3 87.7H155.1L154.8 87.8L154.4 88H154.2L153.8 87.8L153.3 87.2L152.9 87.1L152.2 87.2H151.9L151.8 87H151.7L151.3 86.9V87L150 86.5H148.7L148.5 86.4L148 86.2H147L145.2 86.7L144.5 87L143.9 87.4L143.8 87.8H143.6L143.1 87.7L142.7 87.8L142.3 88L141.6 88.3H141.5V88.2H141.4L141.1 88.7L140.7 89.2L140.2 89.5L139.6 89.7V89.8H140L140.3 89.7L140.6 89.5L141.4 88.7L141.7 88.6H142.1L141.3 89.5L141.1 89.8L140.9 90.6V91L141 91.2L140.8 91.4L140.6 91.5L140.3 91.4V91.3L140.1 91.1L139.9 91.2L139.6 91.3L139.2 91.5L138.9 91.8L138.5 92.1L137.9 91.9L138.1 91.6L138.6 91.4L138.7 91.2V90.9L138.6 90.6L138.4 90.4L138.3 90.2V89.9L138.1 89.7L137.9 89.6L137.3 89.5L137.1 89.4L137 89.3L137.1 89.1V88.9L136.5 88.8V89.5L136.3 89.7H136.1L136 89.9L136.1 90.1H135.6L135.2 90L135.4 90.4H135.6L135.7 90.5V90.6L135.9 91.1L136 91.2H136.5L136.7 91.3L136.8 91.4V91.9L136.7 92.1L136.5 92.2V92.1L136.4 91.9H136.3L136.1 91.8L134.9 92.5L132.4 93.6L129.3 95.5L127.1 96.6L125.4 97.6L124.8 98.2L124.4 98.9L124.2 99.7L124 99.8V99.9L124.2 100.4V100.6L123.9 100.9L123.5 101.1L123.2 101L123.1 100.6L122.7 101.5L122.5 101.6L122.2 101.7L121.7 102.3L121.4 102.4L120.5 103.4L115.3 106.6L115 106.5L114.7 106.6L114.2 106.9L113.7 106.8H113.5L113.3 107.1L112.9 107.3L112.4 107.8L111.4 108.3L107.5 111.4L107.2 111.7L106.7 112.4L106.5 112.6L106.3 112.7L105.4 114.5L104.8 114.8L103.8 114.7L104 114.3H104.6L104.8 114.2V114L104.6 113.9L103.7 114H103.6L103.5 114.2L103.6 114.5L103.5 114.7L103.3 114.8L103.1 114.7L103 114.5V114.9L103.4 115.1L103.9 115.3H104.3L104.8 115.5H105L105.3 115.4L105.7 115H106.3L105.6 117.2L105 118.2L104 118.5L103.6 118.7L102.7 119.9L102.5 120.2L102.4 120.6V120.3L102.5 120.1L102.7 119.8L103.2 119.1L103.4 118.8L103.3 118.6H102.9V118.7H102.8L102.6 118.9V119H102.2L101 118.7L100.9 118.6L100.7 118.5L100.4 118.3L100.3 118.1V117.8L100.4 117.6L100.3 117.3V117L99.9 115.9V115.8L99.8 115.3L99.4 114L98.7 114.5H98.5L98.4 114.3V114.1L98.2 114H98L97.6 114.1L97.4 114H97.3L97.2 113.9V113.6L96.8 113.2H96.6L96.2 113.1H96L95.7 112.8H95.5V113L95.4 113.1L94.8 113.4V113.5L94.7 113.6V113.9L94.8 114.2V114.4L94.7 114.5V114.6L94.6 114.7L94.4 114.8L94.3 114.9V115L94.2 115.1L94.1 115.3V115.4L94 115.6H93.7L93.1 115.3L92.6 115L92.5 114.9V114.8L92.2 114.1L92.1 113.9V113.7L92.2 113.6L92.6 113.4V113.3L92.7 113.2L92.8 113V112.5L92.7 111.8L92.8 111.5V111.4L93.2 111L93.1 110.8V110.6L93 110V109.7L93.1 109.5L93.7 109.2L93.9 108.8L94.2 108.3V107.9H94.1L93 107.5L92.9 107.4H92.8L92.7 107.3L92.6 107.1V107L92.2 106.6H91.7L91.3 106.8L90.9 107.2H90.7L90.6 107.1V106.9L90.4 106.5H90.2L90.1 106.7L89.8 106.8L89.1 106.9H89L88.7 106.8H88.6L88.4 107H88.3L87.7 106.4L87.3 106.2H86.9V106.3L87 106.4H86.5L84.9 106.5L84.3 106.4L83.8 105.7L83.3 105.6L83.4 106.3L82.8 106.7L82.1 106.8L81 106.6H80.5L80.2 106.9H79.9L79.5 106.8L78.2 106.4L77.9 106.3V106.2L77.8 106.1V105.6L77.9 104.9V104.8L77.8 104.7L77.5 104.1V103.5L77.6 103.3H78.2L78.3 103.1V102.6L78.4 102L78 101.7V101.4L78.1 101.3H78.2L78.8 101.1L79.1 100.8V100.6L78.9 100.4V100.1L79 100H79.1L79.2 99.8L79.4 99.6V99.2L79.1 98.9H79L78.9 98.8H78.8L78.6 98.6H78.5L78.4 98.5L78.2 98.4L77.8 97.2L77.7 97V96.9L77.5 96.8H77.4L77.1 96.5V96.3L77.2 96V94.7L77.1 94.5L77 94.4L76.8 94.1L76.6 93.9L76.4 93.8H76.3L75.9 93.6H75.7L75.6 93.5L75.4 93.1L75.2 92.9L75 92.8L74.9 92.7H74.8L74.6 92.3L74.3 91.9L73.9 91.4L73.8 91.1L73.7 90.9V90.7L73.5 90.5L73.6 90.2L73.5 90.1H73.4L73.3 90.2H73.1L72.8 90L72.5 89.4L72.4 89.3H72.2L71.9 89L71.8 88.6V88.3H71.9L72.2 88.2H72.3V88.1L72.5 87.7V87.4L72.6 86.4L72.8 85.2L72.7 85V84.9L72.5 84.8L72.3 84.5L72.1 84.3L71.7 83.7L71.4 83.1L71.3 82.7V81.8L71.2 81.5V81.3L71.1 81.2L70.8 81L70.7 80.9V80.7L70.8 80.6V80.4L70.9 80.3L71 80L71.5 78.6V78.2L71.4 77.2L71 75.3L70.4 73.9L69.9 73.1L69.4 72.7L69.3 72.6V72.2L69.2 71.9L69 71.7H68.6L68.5 71.8L68.4 71.7L67.9 71.5L67.8 71.4L67 71L66.4 70.9H66.2L65.9 70.7L65.6 70.4L65.5 70.2L65.6 69.6L65.5 69.3L65.2 69.1L64.6 68.8L64.4 68.6V67.7L64.2 67.5L64 67.4L63.8 67.5V67.9L63.4 67.7H63.2L61.8 68.1L61.6 68.2L61.2 68.3L59.6 68.5L59 68.4L58.8 68.3L58.5 68.2H58.2L58 68.4L57.9 68.6H57.6L57.3 68.4L57 68.3L56.6 67.9L56.4 67.8L56 67.7L55.7 67.8L55.5 68L55.1 68.5L54.9 68.4L53.7 68.5L53.5 68.4H53.4L53.3 68.3H53.2L52.8 68.1L51.1 67.9H50.6L50.2 68L49.7 68.3L49.5 68.4L49.2 68.6H48.4L48.1 68.5L47.9 68.4L47.7 68L47.5 67.4L47.3 67.1L46.5 66L46.3 65.9L46 65.7L43.6 65.1L41.4 64.5L40 63.9L38.3 62.8L37.8 62.6L37.3 62.3L36.9 62.1L36.6 62H36.2L36 62.1H34.8L34.7 62.2L34.3 62.5H34.2L34.1 62.6L33.8 62.7L33.4 62.8L32.6 62.7H32.2L31.8 62.5L31.1 62.2L30.7 62H30.3L29.9 62.2L29.6 62.3L28.6 61.3L28.2 61.1L26.9 61.3L26.4 61.2L26 61.1L23.8 59.8L23 59.4L22.1 59.2H21.7L21.1 59.3L20.7 59.6L20.5 60L20.4 60.4L20.2 61L20 61.4L19.6 61.7L19.1 61.8L18.9 61.6L18.8 61.3L18.6 61.1H18.5L18.4 61L18.2 60.9L17.9 60.8L17.7 60.9L17.2 61.3H16.7L15.8 61H15.3L14.5 60.9L14.2 61L13.8 61.1L13 61.2L12.4 60.8L11.8 60.3L11.1 60.2L10 60.9L9.5 61L7.5 60.6L6.6 60.7L6.3 60.6L5.8 60.3L5.5 60.2H4.4L4 60.4L3.5 60.7L3.2 60.9L2.2 61.6L1 62.8L0.3 63L0 63.1ZM113.8 107.1H114.4L114.6 107L114.9 106.8H115.1V106.9L114.2 107.6L113.5 107.8L113.1 108L108.4 112L107.6 112.4L107.3 112.8L106.9 113.5L106.5 114.3L106.3 114.6L106 114.5L106.1 114.1L106.4 113.3L106.5 112.9L106.6 112.8L107.4 111.8L109.7 109.9L110.6 109.5L111.8 108.3L112.9 107.9L113.4 107.3L113.8 107.1ZM137.9 90V90.3L138.2 90.7L138.4 91.1V91.4L137.4 90.9H137.2L136.9 91.2L136.8 91.1H136.4L136.2 90.9L135.8 90.4L136.1 90.3H136.2L136.4 90.4L136.5 90.3V90L136.4 89.8H136.6L137.3 90H137.9ZM160.1 89.5L159.9 89.6V89.7L160 90V90.3L160.1 90.4V90.5L159.9 90.7H159.8L159.6 90.9L159.4 90.7H159.2L159 90.4L158.8 89.9L158.6 89.6L158.3 89.8L158.2 89.7L157.5 90L156.7 90.2H156L155.4 89.7L155.3 89.2L155.4 88.9L156 88.5L157.3 87.2L157.5 86.8L157.6 86.1L157.7 86L157.8 85.8L157.9 85.7V85.5L158.1 85.4H158.2L158.5 85.5L158.7 85.6L159.7 86.3L159.9 86.6L159.7 88.2L159.1 88L159 88.7L159.3 89.3L160 89.2L160.1 89.4V89.5Z" fill="#454545"/>
</g>
</svg>
