<svg width="182" height="121" viewBox="0 0 182 121" fill="none" xmlns="http://www.w3.org/2000/svg">
<g id="estados-br">
<path id="BRRS" d="M86.3821 1.54715V1.6245H86.6097L86.8374 1.54715L86.9512 1.46979L87.1788 1.39243L87.634 1.31507H87.8616L88.2031 1.77922L88.3169 1.85657H88.9997L89.5688 1.6245L89.9102 1.39243H90.1378L90.4793 1.6245L90.5931 2.01129L90.7069 2.47543L91.1621 2.39808L91.7312 1.93393L92.1864 1.77922L92.6417 1.85657L93.7798 2.08865H94.1212L94.235 1.77922V0.928287L94.5765 0.696216L94.8041 0.773573L94.9179 0.928287L95.2593 1.16036H95.4869L95.8284 1.00564L96.056 0.928287L96.3974 0.85093L96.7389 0.541501L97.1941 0L98.1046 0.386786L98.5598 0.541501H99.1289L99.3565 0.773573L99.0151 1.31507L98.446 2.166H99.0151L100.039 1.70186L100.722 1.54715L100.95 1.6245L101.405 1.85657H101.633L101.86 1.77922L102.088 1.54715L102.202 1.00564L102.771 1.46979L103.112 1.54715H103.681L104.023 1.31507L104.25 1.083V0.773573L104.478 0.464144L104.819 0.232072L105.275 0.154715L105.616 0.232072V0.386786L105.275 0.696216L105.047 1.00564L105.161 1.23772L105.388 1.31507L105.616 1.23772L105.73 1.16036L105.957 1.39243L106.071 1.6245L105.844 1.93393L105.616 2.166V2.47543L105.844 2.63015H105.957L106.185 2.55279L106.299 2.39808L106.413 2.166L106.527 2.01129L106.982 1.54715V1.70186L107.096 2.08865L107.323 2.24336L107.778 2.166L108.12 1.93393L108.348 1.70186L108.689 1.54715H109.258L109.486 1.85657L109.599 2.24336L110.055 2.39808H110.624L111.648 3.09429L111.876 2.86222H112.103L112.331 3.01693L112.559 3.48108L112.786 3.40372L113.014 3.17165L113.128 3.09429H113.469L114.379 3.24901L114.607 3.17165L115.973 2.86222H116.2L116.314 3.01693L116.428 3.09429L117.111 3.24901H117.452L117.566 3.01693L117.908 2.55279L118.135 2.47543H118.363V2.7075L118.59 2.93958L118.818 3.24901L119.046 3.48108L119.16 3.24901V3.17165L119.046 3.09429V3.01693L119.16 2.86222H119.273L119.501 3.01693L119.615 3.17165L119.729 3.63579L119.842 3.71315L119.956 3.63579L120.298 3.55843H120.867L121.322 3.86786L121.663 3.79051L121.55 3.40372V3.17165L121.777 3.01693L122.346 2.93958L122.801 3.09429L123.029 3.24901L122.915 3.40372L122.46 3.48108V3.55843L122.574 3.86786L122.915 4.17729L123.257 4.33201L123.94 3.71315L124.509 3.40372L124.736 3.48108L124.964 3.86786H125.874L126.102 4.02258L125.988 4.33201V4.48672H128.151V4.71879L128.378 5.02822L129.402 5.18294L129.744 5.49237H128.606L128.264 5.64708L129.63 6.11122L130.199 6.49801L129.516 6.80744L129.858 6.8848L130.313 6.73008L130.541 6.57537L130.654 6.8848L130.768 7.4263L130.996 7.73573L131.451 7.81309L131.565 7.65837L131.792 7.03951L132.02 7.19423L132.134 7.34894L131.906 7.65837V7.73573L132.475 7.81309L132.931 7.89044H133.613L133.5 7.50366L133.613 7.27158H134.524L135.093 7.65837L135.321 7.58101L135.548 7.27158L135.776 7.11687L136.003 7.03951L136.231 7.11687L136.345 7.27158V7.4263L136.459 7.50366L136.8 7.65837H136.914L137.142 7.34894L137.483 7.27158L137.597 7.50366L137.711 7.81309V8.04516L137.824 8.12251L138.621 7.89044L138.735 7.9678L138.507 8.35459V8.5093L138.849 8.74137L140.214 8.5093L140.783 8.58666L141.011 8.74137L141.125 8.97344L141.353 9.36023L141.58 9.51495H141.922L142.149 9.66966L142.377 9.74702V10.0564L142.604 10.2112L143.174 9.82437L143.515 9.66966L143.743 9.97909L143.856 10.4432L144.198 10.5206H144.539L144.994 10.6753V10.9847L144.767 11.2942L144.881 11.3715L145.336 11.4489L145.45 11.6036L146.246 12.1451L146.474 12.2224H146.702L146.929 12.1451H147.157L147.498 12.2224L148.067 12.6092L148.75 12.764L149.092 12.996L149.661 13.1507L149.775 13.2281V13.4602L150.344 14.0017L151.254 15.0847L151.823 15.4715L152.392 15.3941L152.734 15.6262L153.416 16.245L154.099 16.7092L154.213 16.9412V17.328L153.986 17.5601V17.7148L154.327 17.7922L154.441 17.8695L154.555 18.1016L154.441 18.3337L154.555 18.4884L154.782 18.6431L155.237 18.4884L155.351 18.411L155.693 18.4884L155.806 18.6431L156.034 18.7205L156.262 18.6431L156.717 19.0299L157.172 20.1129L157.4 20.4223L157.627 20.577L158.196 20.8091L158.652 21.1185L158.879 21.5827L159.676 22.2789L160.131 22.743V22.8978L160.359 22.9751L161.156 23.1298L162.066 23.594L162.294 23.5166L162.635 23.3619H163.318L163.546 23.4393L164.001 23.6713L164.228 23.7487H165.594L166.163 23.9034L166.505 24.2128L166.846 24.0581H167.188L169.464 24.2128L169.919 24.3675L170.374 24.677L170.716 24.8317H171.057L171.171 24.5996V24.2902L171.398 24.0581L171.626 24.1355L171.74 24.2902V24.5223L171.854 24.5996H172.081L172.537 24.677L173.106 24.7543H173.561L173.902 24.677L174.358 24.4449L175.04 24.2128L175.496 24.3675L175.723 24.5996H175.837L175.951 24.5223L176.292 24.4449L177.089 24.2128H177.317L177.658 24.4449L177.772 24.677L177.886 24.8317L178.227 24.9864L178.569 25.0638H179.479L179.593 24.9864L179.707 24.8317L179.82 24.5996H179.934L180.048 24.677L180.503 25.2958L181.072 25.6053L181.186 25.6826L181.072 25.76L180.845 25.8373V26.2241L181.3 26.843L181.186 27.075L180.731 27.2298H180.617L180.503 27.1524H180.39L179.934 26.9977H179.593L179.365 27.1524L179.138 27.2298V27.3071L178.341 28.2354L178.113 28.4675L177.999 28.6222H177.658L177.544 28.6996L177.317 28.7769L177.203 28.8543L176.861 29.1637L176.748 29.2411H176.634L176.52 29.1637V28.9316L176.406 28.8543L176.292 28.9316V29.009L176.179 29.0863V29.4731L176.292 29.6278L176.179 29.7052L176.065 29.8599L175.951 29.9373L175.723 30.0146L175.609 30.092V30.1693L175.496 30.2467V30.3241L175.268 31.0203V31.4844L175.609 33.1089V33.341L175.496 33.4957L175.154 34.1146L175.04 34.5787L174.927 34.7334L174.358 35.0428V35.7391L174.13 35.8938H174.016L173.902 35.8164H173.789L173.447 36.0485H173.333L173.219 35.9711L173.106 35.7391L172.992 35.6617H172.878L172.764 35.7391L172.65 35.8938L172.537 36.1259L172.309 36.3579L171.968 36.6674L171.285 37.1315L170.829 37.3636H170.716L170.602 37.5183V37.673L170.716 37.9824V38.2919L170.602 38.8334V39.1428L170.716 39.2975L170.943 39.4522L171.171 39.5296L172.423 39.7616L172.537 39.839L172.764 39.9164L172.992 40.2258L173.106 40.3031H173.333L173.561 40.2258L173.675 39.9937V39.6069L173.561 39.4522L173.447 39.3749V39.2975L173.219 39.1428L172.423 38.756L172.309 38.6786V38.5239L172.423 38.4466L172.65 38.3692L173.675 38.2145L173.902 38.1371L174.358 37.9051H175.04L175.154 37.8277L175.268 37.5956L175.496 37.4409L176.065 37.5183L177.43 37.9051L177.544 37.9824L177.772 38.0598L178.682 38.8334L179.138 38.9881L179.82 39.1428H180.048L180.276 39.2975L180.39 39.4522L180.503 39.6843L180.617 39.7616H180.959L178.796 41.9276L177.658 43.4748L175.951 45.3314L174.471 47.6521L173.333 48.5804L169.691 55.5425L168.667 57.7085L167.188 60.184L160.928 67.3008L160.814 67.6103L160.7 67.8423L157.855 70.7819L155.465 72.5611L154.213 73.9536L150.685 76.8931L148.067 78.7497L144.084 80.9931L138.621 84.1647L131.679 87.0269L131.11 87.4137L127.809 90.2759L127.012 91.2042L126.785 91.3589L126.671 90.9722L126.785 90.508L127.354 89.8892L127.468 89.5797L127.695 89.1929L127.809 88.7288L127.581 88.4194L127.24 88.0326L127.581 87.8005L128.037 87.6458L128.264 87.3364L128.037 86.7949L126.557 85.6345V85.093L127.468 84.7062L128.492 85.0157L130.313 85.8666H131.337L132.362 85.5572L132.817 85.093L132.362 84.6289L133.5 84.4741H135.321L136.231 84.01L138.621 82.1534L138.963 81.6119L139.759 81.2251L139.873 80.9157L140.101 80.4516L140.442 80.6063L141.011 81.2251L141.239 81.1478L141.125 80.8384L140.897 80.1421L141.011 79.8327L141.239 79.3686L141.58 79.0591L141.808 78.8271L142.035 79.4459L142.832 79.6006L143.856 79.4459L144.539 79.1365L144.881 78.9044L145.905 78.4403L146.702 77.5894L147.384 76.5063L147.84 75.1913L147.954 73.8762L147.498 72.7158L147.612 72.4064L147.726 71.6328L147.954 71.1687L148.409 71.2461L149.319 71.4781L149.661 71.4008L150.457 71.1687L150.799 71.0913H151.14L151.368 71.2461V72.2517L151.482 72.4064L151.595 72.4838L152.051 72.3291L152.165 72.2517V72.0196L152.278 71.7876L152.62 71.7102L152.847 71.6328L152.961 71.5555L152.847 71.4008L152.734 71.3234L152.392 71.4008L152.165 71.3234L151.823 70.7819L152.051 70.163L152.392 69.3895L152.506 68.6159L152.165 68.2291L152.051 68.0744V67.9197L152.392 67.997L152.62 68.0744H153.53L153.872 67.9197L155.693 66.914L156.603 66.7593L156.945 66.6046L157.4 66.4499L157.627 66.2178L158.538 64.9801L158.879 63.5103L158.652 60.2613L158.538 59.9519L158.083 59.2557L157.855 58.7142L157.741 58.5595V58.4047L158.196 58.25H158.652L158.879 58.5595L159.676 58.9462V59.101L159.562 59.1783L159.448 59.333V59.4878L159.562 59.7972L159.79 60.1066L160.131 60.416L160.473 60.6481L161.269 60.184L161.497 60.0292L161.383 59.7198L161.269 59.2557L161.383 59.101L161.725 58.7142L162.066 57.7085V56.7029L161.952 56.3935L161.042 56.084L160.928 56.0067L160.7 55.5425L160.587 55.3878L160.359 55.2331H159.79L159.562 55.3105L158.993 55.7746L158.879 55.852V56.084H159.107L159.335 56.2387L159.448 56.3935V56.6255L158.993 57.0897L158.538 57.167H156.603L156.262 57.3217L156.148 57.7085L154.782 57.6312H154.327L153.872 57.4765L153.53 57.6312L153.075 58.25V59.101L153.416 59.7972L152.961 59.6425L151.823 59.0236L151.368 58.8689L151.026 58.7915L150.685 58.6368L150.571 58.3274V58.018L150.799 57.7859L151.026 57.4765L151.14 57.3991L151.254 57.2444L151.026 56.6255L150.685 56.5482L150.457 56.7029H150.344L150.23 56.2387L149.661 56.1614L149.092 56.3161L148.864 56.3935L148.636 56.5482L148.295 56.3935L147.498 55.9293L147.612 55.6972L147.384 55.5425L146.702 55.3105H146.133L146.019 55.2331L146.133 55.0784L146.474 54.8463V54.3822L146.246 54.1501L145.905 53.9954L145.791 53.8407V53.5312L146.019 52.9897V52.603L145.564 52.7577L145.45 52.5256V52.1388L145.222 51.9841L144.994 52.0615V52.4482L144.539 53.0671L144.425 53.1444L144.539 53.2992H144.653L144.767 53.3765V53.5312L144.653 53.686V54.1501L144.539 54.3822L144.312 54.6916V54.8463L144.425 55.0784V55.4652L143.97 55.9293H144.198L144.653 55.852H144.994L145.45 56.3161L144.767 56.7802L145.108 57.0897L145.791 57.2444L146.019 57.5538L146.815 57.0123L147.043 57.4765V57.9406L147.157 58.4047H147.726L148.864 58.1727L149.319 58.0953L149.433 58.25L149.319 58.4821L149.205 58.8689L149.092 59.0236L148.864 59.101L148.636 59.2557H148.295L147.954 59.101L147.84 59.0236L146.929 59.101L146.246 59.5651L145.791 60.2613L145.108 61.6538L144.881 62.4273V63.2009L144.994 63.9745L145.45 65.5216L145.336 65.9858L144.994 66.2952H144.653L144.312 65.831L144.881 65.7537V65.2895L144.312 64.2065L144.084 63.5103L143.856 63.3556H143.287L142.832 63.5103L142.718 63.8198V65.9084L142.832 66.2178L143.174 66.914V67.765L143.06 67.9197L142.035 67.8423H141.466L141.011 67.997L140.783 68.2291L140.556 68.6159L140.328 69.3895L140.442 70.2404L140.67 70.9366L141.353 71.4781L138.393 72.1743H137.938L137.255 72.4064L136.8 73.0253L136.573 73.7215V74.3403L136.914 74.5724V74.6498L136.573 74.7271L136.345 74.6498L136.003 74.5724H135.776L135.548 74.6498L135.207 74.8045L134.638 74.8819L133.613 74.8045H133.272L132.703 74.9592L132.248 75.1139L131.906 75.6554H131.337L130.882 75.5781H130.313L130.199 75.6554L130.085 75.8101L129.971 75.8875L129.63 75.9648L129.402 76.0422V76.1969L129.516 76.3516L129.744 76.429L129.858 76.5063L129.744 76.6611L128.833 77.1252L128.72 77.2026L128.606 77.4346L128.492 77.8214L128.606 78.9818V79.2139L128.492 79.6006V79.8327L128.606 80.0648L128.833 80.2969L128.947 80.4516L128.492 81.3799V81.6119L128.378 81.7666L128.264 81.6119L128.037 81.2251L127.923 80.6836L127.809 80.6063L127.695 80.3742L127.581 80.2969H127.354L127.126 80.1421L126.899 80.0648L126.671 80.1421L126.443 80.2969V80.5289L126.557 81.0704H126.785L127.126 80.9931L127.468 81.0704L127.581 81.3025L127.468 81.6893L127.126 82.1534L126.443 82.6176L123.94 83.2364L123.598 83.4685L123.484 83.9326V84.0874L123.712 84.4741V84.7836L123.484 85.093V85.3251H122.915V85.7119L123.143 86.0213L123.712 85.8666L124.281 86.3307L124.509 86.4854L124.964 86.5628H125.191L125.305 86.7175L125.419 86.7949L125.533 86.9496L125.419 87.1817H125.191L124.736 87.1043L123.143 87.6458L122.915 87.9552V88.5741L122.801 88.9609L122.688 89.2703L123.37 89.1929L123.712 89.2703V89.5024L123.143 89.7344L123.712 89.8118L124.395 89.7344L125.078 89.425L125.305 89.1929L125.419 88.9609L125.761 88.8062L126.102 88.7288H126.443L126.671 88.8062V88.9609L126.33 89.1929L125.191 89.6571L124.736 90.1212L124.964 90.508L125.419 90.4307L126.216 89.7344L126.557 89.5024L126.33 90.1986L126.216 90.508L126.443 91.0495V91.2816L125.647 91.5137L123.37 92.9061L122.801 93.4476L119.956 97.4702L118.477 100.874L117.794 103.04L114.379 108.61L113.81 109.306L111.534 111.394L109.827 112.71L107.437 114.257L103.567 116.577L101.177 118.279L99.5841 119.362L96.9665 120.523L96.2836 120.6L95.9422 120.368L95.8284 120.058L95.6008 119.749L95.1455 119.517H94.8041L94.4626 119.594H93.8936L93.3245 118.821V117.119L93.8936 114.102L93.3245 111.24V109.925L93.7798 109.074L93.8936 108.61V108.532L94.5765 107.991L95.3731 107.527L98.1046 106.212L98.446 106.057L98.5598 105.67L98.6736 104.974L98.7874 104.664L99.4703 104.2L100.95 103.427L101.519 103.04L101.974 102.653L102.771 102.189L102.998 101.88L103.112 101.57L102.885 101.261L101.405 100.178L101.064 100.023L100.267 99.7909L99.5841 99.4815H98.7874L98.446 99.3267L97.4217 98.94L96.1698 98.6305L94.8041 97.6249L93.3245 96.9287L92.7555 96.5419L92.3002 96.0777L91.9588 95.6136L91.7312 95.3815L91.1621 95.0721L90.9345 94.7627L90.8207 94.4532L90.7069 93.525L90.5931 92.9061L90.2517 92.4419L89.1136 91.2042L88.4307 90.1986V89.5024L88.3169 89.2703L87.9755 89.1156L86.6097 88.8835L86.0407 88.6514L85.6992 88.4967L85.4716 88.2647L85.3578 88.1099L85.244 87.8779L85.1302 87.7232L84.9026 87.4911L84.2197 87.1817L83.5368 87.0269L82.7402 86.9496L82.2849 86.7949L82.1711 86.4854L81.9435 86.4081L81.6021 86.176L81.1468 86.0213H80.6916L80.2363 86.0987L79.8949 86.4081L79.6673 86.5628H79.4397L78.8706 86.3307L77.7325 85.6345L76.4806 85.0157L74.8873 84.01L74.2044 83.4685L73.5215 83.0044L72.7249 82.6176L72.1558 82.2308L72.042 82.0761L71.8144 81.6893V80.9157L71.7006 80.6063L71.3591 80.2969L71.0177 80.0648L69.8796 79.3686L69.5382 79.1365L69.1967 78.595L68.8553 78.3629L68.5139 78.2856H67.7172L63.9615 77.8988L63.2786 77.7441L62.9372 77.5894L62.7095 77.3573L62.1405 76.9705L61.23 76.6611L60.5471 76.1969L59.9781 75.6554L59.5229 75.1913L59.1814 74.8819L58.84 74.9592L58.3847 75.5007L58.1571 75.8101L57.8157 75.9648L57.4743 75.8875L57.019 75.6554L55.8809 75.0366L55.5395 74.8045L54.629 74.5724L54.1738 74.4177L53.8323 74.1083L53.7185 73.7988L53.3771 73.0253L53.0357 72.7932L52.3528 72.4064L52.1252 72.2517L51.8975 71.9423L51.7837 71.3234L51.6699 71.014L51.3285 70.6272L49.6213 69.3895L48.597 68.6933L48.1418 68.3065L47.6866 68.0744L46.8899 67.765L46.207 67.2235L45.7518 67.1461L45.2965 67.2235L44.9551 67.4555L44.8413 67.765L44.9551 68.5386L44.8413 68.848L44.6137 69.0801L43.4756 68.9253L43.0203 69.0027L42.7927 69.2348L42.4513 69.8536L42.3375 70.163L41.996 70.3178L41.0856 70.7819L40.7441 70.9366L40.6303 71.014L40.5165 71.1687L40.2889 71.3234L40.0613 71.4008H39.4922L38.6955 71.4781L37.216 71.4008L36.647 71.4781L36.4193 71.1687V70.7819L36.5331 70.0083V68.7706L36.647 68.3838L36.9884 67.9197L37.1022 67.3782L36.9884 66.8367L36.647 66.2952L35.1674 65.5216L34.826 65.2122L34.0293 64.2065L33.9155 64.0518L33.6879 63.8971L33.2326 63.665L33.005 63.5877L32.8912 63.3556L32.7774 63.2009L32.6636 62.9688L31.9807 62.4273L31.5255 62.1179L30.7288 61.8085L29.3631 61.0349L28.3388 60.6481L28.1112 60.4934L27.7697 60.184L27.2007 59.5651L26.7454 59.2557L25.6073 58.7142L25.1521 58.4821L24.014 57.7085L23.9002 57.4765L23.6726 57.3217L23.4449 57.2444H22.9897L22.7621 57.167L22.4207 57.0123V56.935L22.5345 56.7029L22.4207 56.3935L22.193 56.084L21.8516 55.852L21.5102 55.6972L20.7135 55.4652L19.3478 54.769L19.1201 54.6142L18.6649 54.1501L17.8682 53.7633H16.9578L16.1611 53.8407L15.023 53.6086L14.5677 53.686L13.7711 53.7633L13.0882 53.9954H12.8606L12.4053 53.8407H12.1777L11.6087 54.0727L10.4706 55.1557L10.3567 55.6199L10.2429 56.2387L9.7877 56.7029L9.10483 57.0897L8.42197 57.167H8.19435L7.96673 56.935L7.73911 56.8576L7.6253 56.935L7.39768 57.167H7.17006L6.82863 57.0897L6.37338 56.7802H5.91814L5.57671 56.8576L5.00766 57.2444L4.78004 57.3217L4.43861 57.2444L4.09718 56.8576L3.86955 56.7802H3.3005L2.27621 56.8576H1.70716L1.02429 56.5482L0.569052 55.5425L0.11381 55.3105L0 55.1557L0.910483 55.0784L1.36573 54.9237L2.39002 54.4595L4.55242 52.603L6.48719 51.5199L6.71481 51.2879L6.94244 49.1992L7.28387 48.5804L7.96673 48.1936L8.99102 47.8842L9.90151 47.8068H10.9258L11.381 47.7294L11.8363 47.42L13.5434 46.1823L13.7711 45.8729L14.4539 45.3314L14.7954 44.7125L16.1611 43.7842L16.3887 43.5521L18.0959 42.4691L18.3235 42.1597L18.4373 41.9276L18.5511 41.7729L18.8925 41.6182L19.0063 41.4635V41.0767L19.234 40.7673L19.4616 40.6899L19.5754 40.5352L20.4859 40.3031L20.7135 40.1484L21.1687 39.9164L21.3964 39.6069L21.7378 38.8334L21.9654 38.4466L21.8516 38.2145V37.9824L21.9654 37.7504L22.193 37.5183L22.7621 36.8994L23.5588 36.3579L24.3554 35.9711L25.1521 35.6617L26.7454 35.4296L27.0869 35.2749L27.4283 34.8881V33.8825L27.8836 33.1863L29.4769 32.4901L30.0459 31.8712L30.1598 30.4014L30.3874 30.092L30.8426 29.9373L31.8669 29.7826L32.6636 29.4731L34.4846 27.7713L35.9641 27.075L36.4193 26.6109V25.2958L36.647 25.0638L37.3298 24.909L38.0127 24.677H38.8094L38.9232 24.5996L39.1508 24.5223L39.2646 24.4449V23.4393L39.1508 23.2845L39.037 22.9751L39.4922 22.6657L40.5165 22.3563L41.1994 22.511L42.1099 22.5883L43.0203 22.743L43.3618 23.0525L43.4756 23.4393L43.7032 23.5166L43.9308 23.3619L44.1584 23.1298L44.2723 22.8978L44.6137 22.0468L44.2723 21.5827L44.0446 21.428L43.7032 21.2733H43.4756L42.5651 20.9638L42.2237 20.8091L42.1099 20.345L42.6789 20.1129L44.1584 19.7261L45.0689 19.1072L45.2965 19.0299L45.5242 18.8752V18.7978L45.638 18.5657L45.9794 18.3337L46.4347 18.411L46.5485 18.4884V18.7978L46.8899 18.8752H47.1175L47.2313 18.7205V18.6431L47.3451 18.4884L47.4589 18.411L47.8004 18.2563L47.9142 18.179L48.1418 17.7922L48.2556 17.6375L48.4832 17.5601L48.7109 17.6375V17.7148L48.9385 17.7922H49.1661L49.7352 17.6375L49.849 17.4827L50.8733 16.7092L51.1009 16.3997V15.8582L51.2147 15.7809H51.5561L52.1252 15.6262L52.239 15.3167V15.0073L52.5804 14.7752H52.9218L53.3771 14.8526L53.6047 14.93L53.8323 14.8526L54.7428 14.3885L54.9704 14.079L55.3119 13.847L55.7671 13.6922L56.1085 13.7696L56.5638 14.079L57.1328 14.1564L57.2466 13.6922L57.3605 13.5375H58.0433L58.2709 13.4602L58.7262 13.6149H59.1814V13.4602L58.84 13.0734L58.1571 12.6866L57.9295 12.3772L58.3847 12.2224L58.84 12.2998L59.1814 12.4545L59.6367 12.5319L60.2057 12.4545L61.3438 11.7583L61.7991 11.6036L61.9129 11.4489L62.0267 11.0621L62.1405 10.2885V9.66966L62.3681 9.5923H62.9372L63.3924 9.43759L63.5062 9.0508L63.62 8.58666L63.7338 8.27723L63.9615 8.12251L64.3029 7.9678L64.5305 7.89044L64.7581 8.04516L64.6443 8.12251L64.5305 8.27723V8.35459H64.6443V8.43194L64.8719 8.5093V8.58666H64.9857L66.01 8.35459H66.2377L66.6929 8.43194L67.1481 8.27723L67.262 8.19987V7.65837L67.4896 7.50366H67.6034L67.7172 7.58101L67.831 7.89044L68.0586 7.9678L68.4001 7.73573L68.6277 7.4263L68.7415 7.11687L68.8553 6.8848L68.9691 6.73008L69.1967 6.65273H69.5382L69.652 6.73008H69.7658L69.9934 7.11687V7.19423L70.3348 7.27158H70.5625L72.042 6.96216L72.4972 6.73008V6.49801L72.042 6.11122L72.1558 5.95651L72.4972 5.87915H73.863L74.0906 6.11122V6.49801L74.2044 6.65273H74.432L74.6596 6.49801L74.7734 6.3433V5.64708L75.1149 5.8018L75.3425 6.03387L75.6839 6.18858H76.1392L76.253 6.11122L76.4806 6.03387L76.5944 5.8018V5.64708L76.7082 5.49237H77.0497L77.2773 5.41501L77.5049 5.2603L77.3911 4.87351L77.5049 4.71879L77.6187 4.64144L77.7325 4.48672L78.4154 3.24901L78.643 2.93958L78.9844 3.09429L79.2121 3.24901L79.0982 3.63579L79.7811 3.79051L80.6916 3.71315L82.2849 2.39808L82.5126 2.08865L82.6264 2.01129H82.854L82.9678 2.08865L83.1954 2.166L83.6507 2.08865V1.85657L83.5368 1.6245V1.39243L83.8783 1.31507L84.1059 1.39243L84.4473 1.6245H84.7888L85.0164 1.46979L85.244 0.928287L85.4716 0.773573L86.0407 1.16036L86.1545 1.46979L86.3821 1.54715Z" fill="#454545"/>
</g>
</svg>
