<svg width="11" height="9" viewBox="0 0 11 9" fill="none" xmlns="http://www.w3.org/2000/svg">
<path id="gato" fill-rule="evenodd" clip-rule="evenodd" d="M8.81003 6.64195C9.26867 6.76315 10.1651 6.9676 10.2001 6.71242C10.2351 6.45724 9.43185 6.19807 9.01781 6.08246C8.99268 6.01647 8.97303 5.93498 8.96214 5.83247C8.88521 5.02295 8.87337 4.21098 8.88184 3.40137C8.88529 2.99535 8.89515 2.58865 8.90457 2.18393C8.91191 1.82674 8.9853 1.41516 8.84552 1.07377C8.7833 0.920389 7.36573 2.24154 7.28342 2.31323C7.19781 2.39046 7.02154 2.47289 6.9356 2.4374C6.27465 2.16555 5.58797 2.07791 4.88008 2.05863C4.76203 2.05575 4.59422 1.93769 4.54073 1.83003C4.2715 1.28091 4.09375 0.399268 3.6043 0.000148338C3.27532 0.228565 3.20986 0.708631 3.09085 1.06225C2.94493 1.49134 2.80099 1.92086 2.65109 2.34908C2.52307 2.71533 1.91057 4.23973 1.43296 4.65258C1.03043 4.62709 -0.00335341 4.60328 -0.00022264 4.99822C0.00334359 5.39117 1.04805 5.29848 1.46601 5.24389C1.48444 5.28339 1.49715 5.32998 1.5057 5.38608C1.51201 5.43336 1.51367 5.47335 1.50826 5.50763C1.1881 5.58152 0.190643 5.83892 0.328676 6.18828C0.454052 6.50984 1.3052 6.24547 1.69115 6.10878C1.71325 6.12196 1.73051 6.13825 1.74137 6.15523C2.49346 7.26682 3.60965 7.78011 4.89225 8.00856C5.88413 8.18592 6.8834 8.17715 7.75787 7.66338C7.97286 7.53728 8.16182 7.41591 8.35168 7.37609C8.63545 7.61131 9.29308 8.10772 9.53055 7.82173C9.77417 7.52666 8.97069 7.10682 8.63684 6.94825C8.6597 6.7676 8.7155 6.68385 8.80606 6.64108L8.81003 6.64195ZM4.15448 4.37601C4.0928 4.56277 3.95033 4.73812 3.7535 4.80979C3.01644 5.07618 2.75501 4.10113 3.35277 3.72917C4.04214 3.30007 4.31154 3.90555 4.15448 4.37601ZM7.78286 5.01751C7.53145 5.67176 7.04133 5.57079 6.85887 5.27221C6.62609 4.8896 6.79039 4.17666 7.46291 4.25287C7.82644 4.29485 7.87747 4.77537 7.78286 5.01751Z" fill="#141414"/>
</svg>
