<svg width="111" height="64" viewBox="0 0 111 64" fill="none" xmlns="http://www.w3.org/2000/svg">
<g id="logotipo" clip-path="url(#clip0_664_3638)">
<path id="Vector" d="M36.1672 53.5272L34.9417 53.6326C34.9126 53.6326 34.8835 53.6399 34.8544 53.6435L33.4981 53.7672L25.6763 54.4544L8.71263 55.9381L2.92717 50.1526L3.03263 46.9381C3.11263 44.3344 3.19626 41.6399 3.19626 39.0326C3.19626 36.4254 3.19626 33.6544 3.13445 30.9708L3.03263 26.5017L5.34172 26.3017C4.02536 20.1817 2.87263 15.0399 1.63626 10.1599L0.261719 4.73081L13.9672 3.53445L16.1054 3.17444V3.20718L16.1344 3.20354L16.1526 3.34172L26.9744 2.39626L40.4544 1.22172L40.9344 1.12354V1.14172L41.1963 1.09808L41.2035 1.15626L51.749 0.236262C52.5999 0.159898 53.3708 0.123535 54.109 0.123535C57.1999 0.123535 59.6363 0.908993 61.3526 2.46172L61.4363 2.51626L61.4544 2.53808L61.4654 2.54535L61.5563 2.64717L61.7308 2.76354L61.7453 2.78899L61.7599 2.7999L61.7781 2.81445L61.8763 2.96353L62.0254 3.06172L62.0363 3.07627H62.0399L62.0508 3.09444L62.0763 3.11263L62.1708 3.25808L62.3054 3.34899L62.3126 3.35626L62.3272 3.36717L62.4326 3.52354L62.5926 3.62899L62.6072 3.65081L62.6217 3.66172L62.7272 3.82172L62.8835 3.92717L62.9017 3.94172L63.0108 4.10535L63.1635 4.20718L63.1744 4.22172L63.1999 4.2399L63.2944 4.38535L63.4326 4.4799V4.48717L63.4508 4.49445L63.4617 4.50899L63.4763 4.5199L63.5744 4.66172L63.7163 4.75626L63.7272 4.77445L63.7453 4.78899V4.79626L63.7635 4.80717L63.8617 4.95627L64.0108 5.05444L64.0217 5.06899H64.029L64.0399 5.09081L64.0581 5.10172L64.1526 5.2399L64.2908 5.33081L64.3017 5.34899L64.3272 5.36717L64.429 5.52354L64.5817 5.62535L64.5926 5.6399L64.6035 5.64717L64.709 5.80717L64.869 5.91263L64.8763 5.92353L64.8908 5.93445L65.0326 6.14535L65.0872 6.20354C65.6472 6.7199 66.1199 7.31262 66.5054 7.97444L69.2799 7.7599C69.6217 7.73444 69.9235 7.72354 70.2108 7.72354C71.3381 7.72354 72.3853 7.89808 73.3272 8.2399L73.5563 7.43626L83.6908 6.65445L84.0617 6.57808L84.069 6.61081H84.0872L84.0944 6.63626H84.1126L84.1199 6.66536H84.1381L84.1999 6.90172L84.349 6.87262L84.3563 6.89808H84.3744C85.1926 6.57081 86.1635 6.33081 87.3199 6.24354C87.5854 6.22172 87.8399 6.21444 88.0981 6.21444C89.2908 6.21444 90.4108 6.43263 91.429 6.86172L91.629 6.94536L92.1054 7.25081L97.4472 12.0726C98.4181 12.9454 99.0363 14.1454 99.1926 15.4472L99.5926 18.8581C100.069 19.0181 100.524 19.2072 100.949 19.4254L101.309 19.6072L107.865 26.1672C108.433 26.7344 108.862 27.3963 109.138 28.1381C109.331 28.6544 109.607 29.4872 109.742 30.1272C110.142 32.0326 110.527 34.9199 110.102 37.8472C109.629 41.1126 107.884 43.9126 105.193 45.7381C102.247 47.7308 99.0144 48.0181 96.4144 48.2472L93.3563 48.5417L81.0035 49.6217L48.829 52.4326L37.3854 63.8763L36.1708 53.5272H36.1672Z" fill="#F2F2F2"/>
<path id="Vector_2" d="M107.258 30.6474C107.171 30.2365 106.964 29.5637 106.764 29.0292C106.615 28.6292 106.375 28.2655 106.073 27.9637C104.629 26.5164 99.8 21.6874 99.8 21.6874C99.0582 21.3092 98.2146 21.051 97.2764 20.9055C97.2764 20.9019 97.2764 20.8983 97.28 20.891L96.6764 15.7455C96.5964 15.0546 96.2691 14.4219 95.7528 13.9601L90.5637 9.27645C90.5237 9.251 90.4837 9.22554 90.4437 9.20009C89.7491 8.90554 88.9637 8.75282 88.1055 8.75282C87.9128 8.75282 87.72 8.76009 87.5237 8.77464C85.4946 8.931 84.1491 9.68009 83.3273 10.6765L83.32 10.651H83.3018L83.2946 10.6255H83.2764L83.2691 10.6001H83.2509L83.2437 10.5746H83.2255L83.2182 10.5492H83.2L83.1891 10.5237H83.1709L83.1637 10.4946H83.1455L83.1382 10.4692H83.12L83.1128 10.4437H83.0946L83.0873 10.4183H83.0691L83.0619 10.3928H83.0437L83.0364 10.3674H83.0182L83.0109 10.3419H82.9928L82.9855 10.3165H82.9673L82.96 10.291H82.9418L82.9346 10.2655H82.9128L82.9055 10.2401H82.8873L82.88 10.211H82.8618L82.8546 10.1855H82.8364L82.8291 10.1601H82.8109L82.8037 10.1346H82.7855L82.7782 10.1092H82.76L82.7528 10.0837H82.7346L82.7273 10.0583H82.7091L82.7018 10.0328H82.6837L82.6764 10.0074H82.6582L82.6473 9.98191H82.6291L82.6218 9.95645H82.6037L82.5964 9.92736H82.5782L82.5709 9.90191H82.5527L82.5455 9.87645H82.5273L82.52 9.851H82.5018L82.4946 9.82554H82.4764L82.4691 9.80009H82.4509L82.4437 9.77464H82.4255L82.4182 9.74918H82.4L82.3928 9.72373H82.3746L82.3637 9.69827H82.3455L82.3382 9.67282H82.32L82.3128 9.64373H82.2946L82.2873 9.61827H82.2691L82.2618 9.59282H82.2437L82.2364 9.56736H82.2182L82.2109 9.54191H82.1928L82.1855 9.51645H82.1673L82.16 9.491H82.1419L82.1346 9.46554H82.1164L82.1091 9.44009H82.0909L82.08 9.41463H82.0619L82.0546 9.38918H82.0364L82.0291 9.36009L75.5527 9.8619L75.1309 11.3565C75.0328 11.7019 74.9418 12.0365 74.8437 12.3674C74.84 12.3637 74.8364 12.3601 74.8364 12.3565C74.8255 12.3492 74.8182 12.3383 74.8073 12.331C74.8 12.3201 74.7928 12.3128 74.7818 12.3055C74.7746 12.2946 74.7673 12.2874 74.7564 12.2801C74.7491 12.2692 74.7419 12.2619 74.7309 12.2546C74.7237 12.2437 74.7128 12.2365 74.7055 12.2292C74.6982 12.2183 74.6873 12.211 74.68 12.2037C74.6728 12.1928 74.6618 12.1855 74.6546 12.1746C74.6473 12.1674 74.6364 12.1601 74.6291 12.1492C74.6182 12.1419 74.6109 12.1346 74.6037 12.1237C74.5928 12.1165 74.5855 12.1092 74.5782 12.0983C74.5673 12.091 74.56 12.0837 74.5527 12.0728C74.5418 12.0655 74.5346 12.0546 74.5237 12.0474C74.5164 12.0365 74.5091 12.0292 74.4982 12.0219C74.4909 12.011 74.4837 12.0037 74.4728 11.9965C74.4655 11.9855 74.4546 11.9783 74.4473 11.971C74.44 11.9601 74.4291 11.9528 74.4219 11.9455C74.4146 11.9346 74.4037 11.9274 74.3964 11.9201C74.3891 11.9092 74.3782 11.9019 74.3709 11.891C74.3637 11.8837 74.3528 11.8765 74.3455 11.8655C73.1455 10.5783 71.4655 10.3055 70.2546 10.3055C70.0182 10.3055 69.7673 10.3165 69.5164 10.3346L64.9309 10.6874C64.6328 9.61827 64.1164 8.74918 63.3746 8.07645C63.3637 8.06918 63.3564 8.05827 63.3491 8.051C63.3382 8.04372 63.3309 8.03282 63.3237 8.02555C63.3128 8.01827 63.3055 8.00736 63.2982 8.00009C63.2873 7.99282 63.28 7.9819 63.2691 7.97463C63.2618 7.96736 63.2546 7.95645 63.2437 7.94918C63.2364 7.94191 63.2291 7.93099 63.2182 7.92372C63.2109 7.91645 63.2037 7.90554 63.1928 7.89827C63.1855 7.88736 63.1782 7.88009 63.1673 7.87281C63.16 7.8619 63.1528 7.85463 63.1419 7.84736C63.1346 7.83645 63.1237 7.82918 63.1164 7.81827C63.1055 7.811 63.0982 7.80372 63.0909 7.79281C63.08 7.78554 63.0728 7.77463 63.0655 7.76736C63.0546 7.76009 63.0473 7.74918 63.04 7.7419C63.0291 7.73463 63.0219 7.72373 63.0146 7.71645C63.0037 7.70918 62.9964 7.69827 62.9855 7.691C62.9782 7.68372 62.9709 7.67282 62.96 7.66554C62.9528 7.65827 62.9455 7.64736 62.9346 7.64009C62.9273 7.63281 62.92 7.62191 62.9091 7.61463C62.9018 7.60373 62.8946 7.59645 62.8837 7.58918C62.8764 7.57827 62.8655 7.571 62.8582 7.56373C62.8509 7.55282 62.84 7.54554 62.8328 7.53463C62.8218 7.52736 62.8146 7.52009 62.8073 7.50918C62.7964 7.5019 62.7891 7.491 62.7818 7.48373C62.7709 7.47645 62.7637 7.46554 62.7564 7.45827C62.7455 7.451 62.7382 7.44009 62.7309 7.43282C62.72 7.42554 62.7128 7.41463 62.7018 7.40736C62.6946 7.40009 62.6873 7.38918 62.6764 7.38191C62.6691 7.37464 62.6618 7.36372 62.6509 7.35645C62.6437 7.34554 62.6364 7.33827 62.6255 7.331C62.6182 7.32009 62.6109 7.31281 62.6 7.30554C62.5928 7.29463 62.5818 7.28736 62.5746 7.27645C62.5673 7.26918 62.5564 7.26191 62.5491 7.251C62.5382 7.24373 62.5309 7.23645 62.5237 7.22554C62.5128 7.21827 62.5055 7.20736 62.4982 7.20009C62.4873 7.19282 62.48 7.18191 62.4728 7.17463C62.4618 7.16736 62.4546 7.15645 62.4473 7.14918C62.4364 7.14191 62.4291 7.131 62.4182 7.12372C62.4109 7.11645 62.4037 7.10554 62.3928 7.09827C62.3855 7.091 62.3782 7.08009 62.3673 7.07281C62.36 7.06191 62.3528 7.05464 62.3419 7.04736C62.3346 7.03645 62.3273 7.02918 62.3164 7.02191C62.3091 7.011 62.2982 7.00372 62.2909 6.99281C62.28 6.98554 62.2728 6.97827 62.2655 6.96736C62.2546 6.96009 62.2473 6.95281 62.24 6.94191C62.2291 6.93463 62.2218 6.92373 62.2146 6.91645C62.2037 6.90918 62.1964 6.89827 62.1891 6.891C62.1782 6.88372 62.1709 6.87282 62.1637 6.86554C62.1528 6.85827 62.1455 6.84736 62.1346 6.84009C62.1273 6.83282 62.12 6.82191 62.1091 6.81464C62.1018 6.80736 62.0946 6.79645 62.0837 6.78918C62.0764 6.77827 62.0691 6.771 62.0582 6.76373C62.0509 6.75282 62.0437 6.74554 62.0328 6.73827C62.0255 6.72736 62.0146 6.72009 62.0073 6.70918C61.9964 6.70191 61.9891 6.69464 61.9819 6.68373C61.9709 6.67645 61.9637 6.66918 61.9564 6.65827C61.9455 6.651 61.9382 6.64009 61.9309 6.63282C61.92 6.62555 61.9128 6.61463 61.9055 6.60736C61.8946 6.60009 61.8873 6.58918 61.8764 6.58191C61.8691 6.57464 61.8618 6.56372 61.8509 6.55645C61.8437 6.54918 61.8364 6.53827 61.8255 6.531C61.8182 6.52373 61.8109 6.51282 61.8 6.50554C61.7928 6.49463 61.7855 6.48736 61.7746 6.48009C61.7673 6.46918 61.76 6.46191 61.7491 6.45463C61.7418 6.44372 61.7309 6.43645 61.7237 6.42554C61.7128 6.41827 61.7055 6.411 61.6982 6.40009C61.6873 6.39282 61.68 6.38554 61.6728 6.37463C61.6618 6.36736 61.6546 6.35645 61.6473 6.34918C61.6364 6.34191 61.6291 6.331 61.6218 6.32372C61.6109 6.31645 61.6037 6.30555 61.5928 6.29827C61.5855 6.291 61.5782 6.28009 61.5673 6.27282C61.56 6.26554 61.5528 6.25463 61.5418 6.24736C61.5346 6.24009 61.5273 6.22918 61.5164 6.22191C61.5091 6.211 61.5019 6.20372 61.4909 6.19645C61.4837 6.18554 61.4764 6.17827 61.4655 6.171C61.4582 6.16009 61.4473 6.15282 61.44 6.14191C61.4291 6.13463 61.4219 6.12736 61.4146 6.11645C61.4037 6.10918 61.3964 6.09827 61.3891 6.091C61.3782 6.08372 61.3709 6.07281 61.3637 6.06554C61.3528 6.05827 61.3455 6.04736 61.3382 6.04009C61.3273 6.03282 61.32 6.0219 61.3091 6.01463C61.3018 6.00736 61.2946 5.99645 61.2837 5.98918C61.2764 5.98191 61.2691 5.971 61.2582 5.96372C61.2509 5.95645 61.2437 5.94554 61.2328 5.93827C61.2255 5.92736 61.2182 5.92009 61.2073 5.91281C61.2 5.9019 61.1891 5.89463 61.1818 5.88736C61.1746 5.87645 61.1637 5.86918 61.1564 5.85827C61.1455 5.851 61.1382 5.84372 61.1309 5.83281C61.12 5.82554 61.1128 5.81463 61.1055 5.80736C61.0946 5.80009 61.0873 5.78918 61.08 5.7819C61.0691 5.77463 61.0618 5.76373 61.0546 5.75645C61.0437 5.74918 61.0364 5.73827 61.0255 5.731C61.0182 5.72372 61.0109 5.71282 61 5.70554C60.9928 5.69827 60.9855 5.68736 60.9746 5.68009C60.9673 5.67281 60.96 5.66191 60.9491 5.65464C60.9418 5.64373 60.9346 5.63645 60.9237 5.62918C60.9164 5.61827 60.9055 5.611 60.8982 5.60009C60.8909 5.59281 60.88 5.58554 60.8728 5.57463C60.8618 5.56736 60.8546 5.56009 60.8473 5.54918C60.8364 5.5419 60.8291 5.531 60.8219 5.52373C60.8109 5.51645 60.8037 5.50554 60.7964 5.49827C60.7855 5.491 60.7782 5.48009 60.7709 5.47282C60.76 5.46554 60.7528 5.45463 60.7419 5.44736C60.7346 5.44009 60.7273 5.42918 60.7164 5.42191C60.7091 5.41464 60.7018 5.40372 60.6909 5.39645C60.6837 5.38554 60.6764 5.37827 60.6655 5.371C60.6582 5.36009 60.6509 5.35281 60.64 5.34554C60.6328 5.33463 60.6218 5.32736 60.6146 5.31645C60.6073 5.30918 60.5964 5.30191 60.5891 5.291C60.5782 5.28373 60.5709 5.27645 60.5637 5.26554C60.5528 5.25827 60.5455 5.24736 60.5382 5.24009C60.5273 5.23282 60.52 5.22191 60.5128 5.21463C60.5019 5.20736 60.4946 5.19645 60.4873 5.18918C60.4764 5.18191 60.4691 5.171 60.4582 5.16372C60.4509 5.15645 60.4437 5.14555 60.4328 5.13827C60.4255 5.131 60.4182 5.12009 60.4073 5.11282C60.4 5.10191 60.3928 5.09464 60.3818 5.08736C60.3746 5.07645 60.3673 5.06918 60.3564 5.06191C60.3491 5.051 60.3382 5.04372 60.3309 5.03281C60.32 5.02554 60.3128 5.01827 60.3055 5.00736C60.2946 5.00009 60.2873 4.99281 60.28 4.98191C60.2691 4.97463 60.2619 4.96373 60.2546 4.95645C60.2437 4.94918 60.2364 4.93827 60.2291 4.931C60.2182 4.92372 60.2109 4.91282 60.2 4.90555C60.1928 4.89827 60.1855 4.88736 60.1746 4.88009C60.1673 4.87282 60.16 4.86191 60.1491 4.85464C60.1418 4.84736 60.1346 4.83645 60.1237 4.82918C60.1164 4.81827 60.1091 4.811 60.0982 4.80373C60.0909 4.79282 60.0837 4.78554 60.0728 4.77827C60.0655 4.76736 60.0546 4.76009 60.0473 4.74918C60.0364 4.74191 60.0291 4.73464 60.0218 4.72373C60.0109 4.71645 60.0037 4.70918 59.9964 4.69827C59.9855 4.691 59.9782 4.68009 59.9709 4.67282C59.96 4.66555 59.9528 4.65463 59.9455 4.64736C59.9346 4.64009 59.9273 4.62918 59.9164 4.62191C59.9091 4.61464 59.9019 4.60372 59.8909 4.59645C59.8837 4.58918 59.8764 4.57827 59.8655 4.571C59.8582 4.56373 59.8509 4.55282 59.84 4.54554C59.8328 4.53463 59.8255 4.52736 59.8146 4.52009C59.8073 4.50918 59.8 4.50191 59.7891 4.49463C59.7819 4.48373 59.7709 4.47645 59.7637 4.46554C58.5309 3.34191 56.6764 2.771 54.2109 2.771C53.56 2.771 52.8582 2.80373 52.0728 2.87645L40.7346 3.86555L40.7818 5.80373H40.7637L40.7564 5.77827H40.7382L40.7309 5.75282H40.7128L40.7055 5.72736H40.6873L40.68 5.7019H40.6619L40.6546 5.67282H40.6364L40.6291 5.64736H40.6109L40.6037 5.62191H40.5855L40.5782 5.59645H40.5564L40.5528 5.571H40.5309L40.5273 5.54554H40.5055L40.4982 5.52009H40.48L40.4728 5.49463H40.4546L40.4473 5.46918H40.4291L40.4219 5.44373H40.4037L40.3964 5.41827H40.3782L40.3709 5.38918H40.3528L40.3455 5.36372H40.3273L40.32 5.33827H40.3018L40.2946 5.31282H40.2728L40.2691 5.28736H40.2473L40.2437 5.26191H40.2219L40.2146 5.23645H40.1964L40.1891 5.211H40.1709L40.1637 5.18554H40.1455L40.1382 5.16009H40.12L40.1128 5.13463H40.0946L40.0873 5.10554H40.0691L40.0618 5.08009H40.0437L40.0364 5.05463H40.0146L40.0109 5.02918H39.9891L39.9855 5.00372H39.9637L39.9564 4.97827H39.9382L39.9309 4.95281H39.9128L39.9055 4.92736H39.8873L39.88 4.90191H39.8618L39.8546 4.87645H39.8364L39.8291 4.851H39.8109L39.8037 4.8219H39.7855L39.7782 4.79645H39.76L39.7528 4.771H39.7309L39.7273 4.74554H39.7055L39.7018 4.72009H39.68L39.6728 4.69464H39.6546L39.6473 4.66918H39.6291L39.6219 4.64373H39.6037L39.5964 4.61827H39.5782L39.5709 4.59282H39.5528L39.5455 4.56373H39.5273L39.52 4.53827H39.5019L39.4946 4.51282H39.4764L39.4691 4.48736H39.4473L39.4437 4.46191H39.4219L39.4182 4.43645H39.3964L39.3891 4.411H39.3709L39.3637 4.38554H39.3455L39.3382 4.36009H39.32L39.3128 4.33463H39.2946L39.2873 4.30918H39.2691L39.2618 4.28009H39.2437L39.2364 4.25463H39.2182L39.2109 4.22918H39.1928L39.1855 4.20372H39.1637L39.16 4.17827H39.1382L39.1346 4.15282H39.1128L39.1055 4.12736H39.0873L39.08 4.10191H39.0618L39.0546 4.07645H39.0364L39.0291 4.051L27.3273 5.06918L16.5564 6.011L16.2364 7.66554L16.1128 8.30918H16.0946V8.28009L16.0691 8.28372V8.25463L16.0437 8.25827V8.22918L16.0182 8.23282V8.20372L15.9928 8.20736L15.9855 8.17827H15.9673L15.96 8.15282H15.9418L15.9346 8.12736H15.9164L15.9091 8.10191H15.8909L15.8837 8.07645H15.8655L15.8582 8.051H15.84L15.8328 8.02191H15.8109L15.8073 7.99645H15.7855L15.7818 7.971H15.76L15.7564 7.94555H15.7346L15.7309 7.92009H15.7091L15.7018 7.89464H15.6837L15.6764 7.86918H15.6582L15.6509 7.84373H15.6328L15.6255 7.81827H15.6073L15.6 7.79281H15.5819L15.5746 7.76736H15.5528V7.73827L15.5273 7.7419V7.71282L15.5019 7.71645V7.68736L15.4764 7.691V7.66191L15.4509 7.66554V7.63645L15.4255 7.64009L15.4182 7.61099H15.4L15.3928 7.58554H15.3746L15.3673 7.56009H15.3491L15.3419 7.53463H15.3237L15.3164 7.50918H15.2982L15.2909 7.48373H15.2691V7.45463L15.2437 7.45827V7.42918L15.2182 7.43282V7.40373L15.1928 7.40736V7.37827L15.1673 7.38191L15.16 7.35282H15.1419L15.1346 7.32736H15.1164L15.1091 7.30191H15.0909L15.0837 7.27645H15.0655L15.0582 7.251H15.04L15.0328 7.22554H15.0146L15.0073 7.20009H14.9855V7.171L14.96 7.17463V7.14554L14.9346 7.14918V7.12009L14.9091 7.12372V7.09463L14.8837 7.09827L14.8764 7.06918H14.8582L14.8509 7.04372H14.8328L14.8255 7.01827H14.8073L14.8 6.99281H14.7818L14.7746 6.96736H14.7564L14.7491 6.94191H14.7309L14.7237 6.91645H14.7018V6.88736L14.6764 6.891V6.86191L14.6509 6.86554V6.83645L14.6255 6.84009V6.811L14.6 6.81464L14.5928 6.78554H14.5746L14.5673 6.76009H14.5491L14.5419 6.73464H14.5237L14.5164 6.70918H14.4982L14.4909 6.68373H14.4728L14.4655 6.65827H14.4473L14.44 6.63282H14.4182V6.60373L14.3928 6.60736V6.57827L14.3673 6.58191V6.55282L14.3419 6.55645V6.52736L14.3164 6.531L14.3091 6.50191H14.2909L14.2837 6.47645H14.2655L14.2582 6.451H14.24L14.2328 6.42554H14.2146L14.2073 6.40009H14.1891L14.1819 6.37463H14.1637L14.1564 6.34554H14.1346L14.1309 6.32009H14.1091L14.1055 6.29463H14.0837L14.08 6.26918L3.62549 7.18191L4.26549 9.71645C5.58913 14.9455 6.81094 20.4546 8.24367 27.1237L8.5964 28.7637L5.79276 29.0074L5.84003 31.0946C5.90185 33.8037 5.90185 36.5564 5.90185 39.2146C5.90185 41.8728 5.81821 44.6328 5.73458 47.2801L5.66912 49.3164L9.84003 53.4874L25.6219 52.1092C25.6219 52.1092 34.8909 51.2983 34.8909 51.291L38.5746 50.9674L39.4655 58.5601L47.8728 50.1528L49.1018 50.0437V50.0583L64.9237 48.6764L72.9746 47.971L81.12 47.2583V47.2364L83.2837 47.0474V47.0692L93.3018 46.1928L93.2946 46.1674C93.2946 46.1674 95.1564 46.0037 96.36 45.8983C99.0509 45.6619 101.636 45.3746 103.938 43.8146C106.047 42.3892 107.396 40.1783 107.76 37.6619C108.087 35.4146 107.88 32.9892 107.429 30.8255L107.258 30.6474Z" fill="#010101"/>
<path id="Vector_3" d="M6.24731 8.98931L12.1382 8.47658C13.1673 13.2948 14.2873 17.8948 15.1782 22.702L15.4364 22.6802C16.2764 17.7202 17.3309 12.9529 18.2873 7.9384L24.3164 7.41113C22.9382 13.2584 21.6764 19.3275 20.32 25.5966L10.2437 26.4766C8.93459 20.3748 7.64731 14.5239 6.24731 8.98931Z" fill="#F2F2F2"/>
<path id="Vector_4" d="M27.7783 7.10893L37.1747 6.28711C38.6256 12.3089 40.051 17.8871 41.5237 23.7417L35.5637 24.2617L34.931 21.3489L29.9274 21.7853L29.2728 24.8107L23.4292 25.3198L27.7783 7.10529V7.10893ZM34.1128 17.5635L32.5928 10.5671L32.3601 10.5889L30.7928 17.8544L34.1128 17.5635Z" fill="#F2F2F2"/>
<path id="Vector_5" d="M43.0182 14.7089C43.0182 11.858 42.9709 8.61071 42.9018 5.7889L52.16 4.98162C57.4182 4.52344 59.2655 5.71617 59.2655 9.31617C59.2655 12.4943 57.84 13.9525 54.8473 14.4253V14.7998C57.9346 14.7416 58.9127 15.7525 59.1236 18.2362C59.2182 19.4907 59.5927 20.978 60.0109 22.1307L53.7927 22.6725C53.5346 21.4544 53.3709 20.2071 53.3018 18.7416C53.1855 17.2107 52.7164 16.6434 51.0327 16.7889L48.6727 16.9962V23.1198L42.8982 23.6253C42.9673 20.8144 43.0146 17.538 43.0146 14.7089H43.0182ZM53.3018 11.0507C53.3018 9.31981 52.3673 8.95981 50.7527 9.09799L48.6036 9.28708V13.6362L50.7527 13.4471C52.3673 13.3053 53.3018 12.7816 53.3018 11.0507Z" fill="#F2F2F2"/>
<path id="Vector_6" d="M8.42555 39.6474C8.42555 36.9601 8.42555 34.2692 8.36373 31.5637L16.3019 30.8692L18.4183 42.0546L18.8401 42.0183L20.9346 30.4655L28.8728 29.771C28.811 32.4874 28.7892 35.1783 28.7892 37.8655C28.7892 40.5528 28.8728 43.2364 28.9601 45.9164L24.2583 46.3274V39.5746C24.2583 37.8801 24.1965 35.811 24.1746 34.3092L23.8583 34.3383L21.3165 46.5855L15.9383 47.0546L13.3965 35.251L13.0583 35.2801C13.0365 36.7855 12.9965 38.8655 12.9965 40.5565L12.9746 47.3128L8.25464 47.7237C8.33828 45.0255 8.42555 42.331 8.42555 39.6437V39.6474Z" fill="#F2F2F2"/>
<path id="Vector_7" d="M31.1091 38.8436V29.5781L36.2109 29.1308V38.4581C36.2109 40.7054 36.9928 41.3236 38.2219 41.2181C38.88 41.1599 39.4073 40.8872 39.7455 40.4399C40.0619 40.0363 40.2328 39.5854 40.2328 38.109V28.7817L45.3346 28.3345V37.5999C45.3346 42.0981 43.6182 44.6399 38.2219 45.1127C32.8219 45.5854 31.1091 43.3417 31.1091 38.8436Z" fill="#F2F2F2"/>
<path id="Vector_8" d="M47.5963 36.229C47.5963 33.8145 47.5527 30.8109 47.5127 28.149L52.8254 27.6836C52.7818 30.3563 52.7636 33.0036 52.7636 35.269C52.7636 36.9854 52.7854 38.9309 52.8072 39.8181L58.7345 39.2581V43.3236L47.5127 44.3018C47.5563 40.7818 47.5963 38.6218 47.5963 36.229Z" fill="#F2F2F2"/>
<path id="Vector_9" d="M61.4582 35.3781L61.4146 30.8726C60.1855 30.9781 58.5782 31.1417 57.3491 31.2908V27.2908L70.7091 26.1235V30.1235C69.6073 30.1781 67.8509 30.309 66.6 30.4181L66.5782 34.9308C66.5782 37.3017 66.6218 40.0944 66.6618 42.629L61.3673 43.0908C61.3891 40.5708 61.4509 37.749 61.4509 35.3781H61.4582Z" fill="#F2F2F2"/>
<path id="Vector_10" d="M73.7927 25.8507L82.3054 25.1089C83.6181 30.5634 84.909 35.6143 86.2436 40.9198L80.8436 41.3925L80.2727 38.7525L75.7418 39.1489L75.149 41.8907L69.8545 42.3525L73.7927 25.8543V25.8507ZM79.5309 35.3234L78.1563 28.9853L77.9454 29.0034L76.5272 35.5852L79.5345 35.3234H79.5309Z" fill="#F2F2F2"/>
<path id="Vector_11" d="M86.5164 35.2183L91.7454 34.7601C91.9163 36.0547 92.5709 36.582 93.9673 36.4583C94.6036 36.4038 95.1309 36.2329 95.4909 35.8692C95.7236 35.6401 95.8291 35.3201 95.8291 34.9456C95.8291 32.0329 86.9782 36.0729 86.9782 29.4183C86.9782 25.9856 89.2218 24.2292 93.6909 23.8401C98.2436 23.4438 100.338 25.0692 100.913 28.5965L95.9382 29.4474C95.7054 27.9929 94.8582 27.5238 93.7782 27.6183C93.2473 27.6656 92.7818 27.8292 92.5091 28.0838C92.2327 28.3383 92.1273 28.6147 92.1273 28.971C92.1273 32.091 101.062 27.7747 101.062 34.451C101.062 38.051 98.2654 39.8729 93.9273 40.2547C88.5273 40.7274 86.7273 38.8656 86.5164 35.2256V35.2183Z" fill="#F2F2F2"/>
<path id="Vector_12" d="M66.2328 17.0872C66.2328 15.7926 66.2109 13.9235 66.1782 12.7781L69.651 12.5126C72.3928 12.3017 73.5746 13.5417 73.5746 16.5235C73.5746 19.5054 72.3928 20.9126 69.651 21.1163L66.1782 21.3744C66.2109 20.1344 66.2328 18.3526 66.2328 17.0908V17.0872ZM71.4982 16.6799C71.4982 14.6035 70.9891 13.8981 69.3855 14.0217L68.2037 14.1126V19.7381L69.3855 19.6508C70.9891 19.5308 71.4982 18.7054 71.4982 16.6835V16.6799Z" fill="#F2F2F2"/>
<path id="Vector_13" d="M77.2437 11.9309L80.3528 11.6909C81.2037 14.7382 82.0001 17.2327 82.8619 20.1346L80.8146 20.2873L80.3273 18.5018L77.2437 18.7309L76.7455 20.5855L74.7346 20.7346C75.5964 17.7127 76.3492 15.1018 77.2437 11.9273V11.9309ZM78.8364 13.0836L78.7492 13.0909L77.6546 17.1855L79.9201 17.0146L78.8364 13.0836Z" fill="#F2F2F2"/>
<path id="Vector_14" d="M84.1745 17.2399L86.2436 17.0836C86.3891 18.0145 86.8509 18.4108 87.8909 18.3308C88.3564 18.2945 88.7854 18.1636 89.0618 17.8799C89.2509 17.6945 89.36 17.4254 89.36 17.109C89.36 15.1599 84.4727 17.3526 84.4727 13.7599C84.4727 12.0726 85.6436 11.1454 87.6909 10.989C89.5709 10.8436 90.9745 11.6654 91.2836 13.5708L89.3382 13.9017C89.2182 12.8799 88.5091 12.5017 87.7563 12.5599C87.3382 12.5926 86.9927 12.7199 86.76 12.909C86.5491 13.0945 86.4509 13.3417 86.4509 13.6254C86.4509 15.6326 91.3491 13.2654 91.3491 16.9526C91.3491 18.8363 89.7673 19.7708 87.8764 19.909C85.3127 20.0981 84.3164 19.0508 84.1709 17.2399H84.1745Z" fill="#F2F2F2"/>
</g>
<defs>
<clipPath id="clip0_664_3638">
<rect width="110.545" height="64" fill="white"/>
</clipPath>
</defs>
</svg>
