<svg width="40" height="40" viewBox="0 0 40 40" fill="none" xmlns="http://www.w3.org/2000/svg">
<g id="Thumbs up">
<path id="Icon" d="M11.6663 18.3333L18.333 3.33325C19.6591 3.33325 20.9309 3.86004 21.8685 4.79772C22.8062 5.7354 23.333 7.00717 23.333 8.33325V14.9999H32.7663C33.2495 14.9944 33.7281 15.0941 34.169 15.2919C34.6098 15.4898 35.0024 15.7811 35.3194 16.1458C35.6365 16.5104 35.8705 16.9396 36.0052 17.4037C36.14 17.8677 36.1722 18.3555 36.0997 18.8333L33.7997 33.8333C33.6791 34.6281 33.2754 35.3526 32.6629 35.8733C32.0503 36.3939 31.2702 36.6757 30.4663 36.6666H11.6663M11.6663 18.3333V36.6666M11.6663 18.3333H6.66634C5.78229 18.3333 4.93444 18.6844 4.30932 19.3096C3.6842 19.9347 3.33301 20.7825 3.33301 21.6666V33.3333C3.33301 34.2173 3.6842 35.0652 4.30932 35.6903C4.93444 36.3154 5.78229 36.6666 6.66634 36.6666H11.6663" stroke="#98C224" stroke-width="3.5" stroke-linecap="round" stroke-linejoin="round"/>
</g>
</svg>
