<svg width="16" height="16" viewBox="0 0 16 16" fill="none" xmlns="http://www.w3.org/2000/svg">
<g id="wrapper">
<path id="Union" fill-rule="evenodd" clip-rule="evenodd" d="M7.33594 1.9176C7.75002 1.91769 8.08586 2.25351 8.08594 2.6676C8.08593 3.08175 7.75007 3.41751 7.33594 3.4176H2.66895C2.51443 3.41769 2.36614 3.47928 2.25684 3.5885C2.14755 3.69778 2.08606 3.84607 2.08594 4.00061V13.3346C2.08599 13.4892 2.14753 13.6374 2.25684 13.7467C2.36615 13.856 2.5144 13.9175 2.66895 13.9176H12.0029C12.1575 13.9175 12.3058 13.856 12.415 13.7467C12.5243 13.6374 12.5859 13.4892 12.5859 13.3346V8.6676C12.586 8.25346 12.9218 7.9176 13.3359 7.9176C13.75 7.91769 14.0859 8.25351 14.0859 8.6676V13.3346C14.0859 13.887 13.8661 14.4166 13.4756 14.8073C13.085 15.1978 12.5553 15.4175 12.0029 15.4176H2.66895C2.11657 15.4175 1.5869 15.1978 1.19629 14.8073C0.80568 14.4166 0.585987 13.887 0.585938 13.3346V4.00061C0.586064 3.44825 0.8057 2.91854 1.19629 2.52795C1.5869 2.13743 2.1166 1.91769 2.66895 1.9176H7.33594ZM13.3359 0.50354C13.9098 0.503585 14.4604 0.731547 14.8662 1.13733C15.272 1.54315 15.5 2.09371 15.5 2.6676C15.5 3.24151 15.272 3.79203 14.8662 4.19788L8.5332 10.5319C8.43714 10.6279 8.31634 10.6962 8.18457 10.7291L5.51758 11.3951C5.2621 11.4589 4.9919 11.384 4.80566 11.1979C4.61946 11.0116 4.54455 10.7415 4.6084 10.486L5.27539 7.81897L5.30664 7.72229C5.34423 7.62847 5.40069 7.5423 5.47266 7.47034L11.8057 1.13733C12.2115 0.731556 12.762 0.50354 13.3359 0.50354ZM13.3359 2.00354C13.1598 2.00354 12.9908 2.07341 12.8662 2.19788L6.67969 8.3844L6.36621 9.63635L7.61914 9.32288L13.8057 3.13733C13.9301 3.01278 14 2.84369 14 2.6676C14 2.49154 13.9301 2.3224 13.8057 2.19788C13.6811 2.0734 13.512 2.00358 13.3359 2.00354Z" fill="#5D5D5D"/>
</g>
</svg>
