<svg width="51" height="40" viewBox="0 0 51 40" fill="none" xmlns="http://www.w3.org/2000/svg">
<path id="&#226;&#128;&#156;" d="M13.7166 0L20.5339 8.7885C19.1102 9.44558 17.6865 10.2669 16.2628 11.2526C14.8939 12.2382 13.7714 13.5524 12.8953 15.1951C12.0739 16.8378 11.6632 19.0281 11.6632 21.7659L0 21.3552C0 17.1389 0.766598 13.6071 2.29979 10.7597C3.83299 7.85763 5.63997 5.53046 7.72074 3.77823C9.85626 2.02601 11.8549 0.766595 13.7166 0ZM18.8912 21.3552V40H0V21.3552H18.8912ZM43.8604 0L50.6776 8.7885C49.1992 9.44558 47.7755 10.2669 46.4066 11.2526C45.0377 12.2382 43.9151 13.5524 43.039 15.1951C42.1629 16.8378 41.7249 19.0281 41.7249 21.7659L30.1437 21.3552C30.1437 17.1389 30.883 13.6071 32.3614 10.7597C33.8946 7.85763 35.729 5.53046 37.8645 3.77823C40 2.02601 41.9986 0.766595 43.8604 0ZM49.0349 21.3552V40H30.1437V21.3552H49.0349Z" fill="#454545"/>
</svg>
